<svg width="338" height="262" viewBox="0 0 338 262" fill="none" xmlns="http://www.w3.org/2000/svg">
<g clip-path="url(#clip0_29_284)">
<path d="M213.733 261.334C213.733 261.334 208.564 248.602 224.071 239.054L213.733 261.334Z" fill="#E6E6E6"/>
<path d="M207.376 261.102C207.376 261.102 205.8 252.028 193.595 252.106L207.376 261.102Z" fill="#E6E6E6"/>
<path d="M323.965 261.334C323.965 261.334 317.136 244.514 337.623 231.899L323.965 261.334Z" fill="#E6E6E6"/>
<path d="M315.566 261.028C315.566 261.028 313.483 249.039 297.359 249.142L315.566 261.028Z" fill="#E6E6E6"/>
<path d="M196.238 72.8283L189.494 69.2438L189.999 68.9753L196.743 72.5602L196.238 72.8283Z" fill="#CBCBCB"/>
<path d="M190.355 72.8283L189.851 72.5602L196.595 68.9753L197.1 69.2438L190.355 72.8283Z" fill="#CBCBCB"/>
<path d="M140.159 45.0437L139.834 45.6792L141.739 46.6561L142.065 46.0206L140.159 45.0437Z" fill="#CBCBCB"/>
<path d="M179.66 66.0996L175.868 64.1553L176.194 63.5197L179.986 65.464L179.66 66.0996ZM172.076 62.2109L168.284 60.2664L168.609 59.6309L172.401 61.5754L172.076 62.2109ZM164.492 58.3221L160.7 56.3778L161.025 55.7422L164.817 57.6866L164.492 58.3221ZM156.908 54.4334L153.115 52.4891L153.441 51.8536L157.233 53.7979L156.908 54.4334ZM149.323 50.5448L145.531 48.6005L145.857 47.9649L149.649 49.9092L149.323 50.5448Z" fill="#CBCBCB"/>
<path d="M183.778 67.4084L183.452 68.0439L185.357 69.0208L185.683 68.3853L183.778 67.4084Z" fill="#CBCBCB"/>
<path d="M39.9257 92.8439C39.9257 93.0669 39.9184 93.2881 39.904 93.5074C39.823 94.7722 39.5037 96.0102 38.9628 97.1563C38.9586 97.1661 38.9537 97.1752 38.9495 97.1843C38.9244 97.2374 38.8985 97.2905 38.872 97.343C38.7111 97.6671 38.5327 97.9822 38.3374 98.2868C37.4456 99.6853 36.2233 100.842 34.7785 101.656C33.3336 102.47 31.7107 102.915 30.0532 102.952L30.1531 108.701L31.4563 108.015L31.689 108.457L30.1629 109.261L30.3495 119.94L30.3516 120.083L29.344 120.307L29.3461 120.164L29.6633 102.952C28.3292 102.933 27.0121 102.649 25.7886 102.116C24.5652 101.584 23.4596 100.813 22.5362 99.8494C22.4726 99.7837 22.4097 99.7159 22.3482 99.6488L22.3412 99.6411C21.5719 98.8015 20.9496 97.8381 20.5008 96.7913C20.5106 96.8025 20.521 96.813 20.5308 96.8242C19.5164 94.4505 19.4476 91.7785 20.3385 89.3558C21.2294 86.933 23.0127 84.9429 25.3227 83.7933C25.3577 83.7758 25.3933 83.759 25.4283 83.7416C27.7133 82.6402 30.3286 82.4381 32.7555 83.1754C35.1825 83.9126 37.2441 85.5353 38.5317 87.7218C38.5932 87.8253 38.6526 87.9309 38.7099 88.0372C39.5097 89.5128 39.9276 91.1652 39.9257 92.8439Z" fill="#E5E5E5"/>
<path d="M38.5651 97.1898C45.8795 97.1898 51.8089 91.2567 51.8089 83.938C51.8089 76.6192 45.8795 70.6862 38.5651 70.6862C31.2508 70.6862 25.3213 76.6192 25.3213 83.938C25.3213 91.2567 31.2508 97.1898 38.5651 97.1898Z" fill="#E5E5E5"/>
<path opacity="0.2" d="M28.7865 75.0869C27.5511 77.9783 27.3835 81.2151 28.3137 84.2188C29.2438 87.2225 31.211 89.7973 33.8639 91.4833C36.5167 93.1693 39.6822 93.8565 42.7947 93.4221C45.9073 92.9877 48.7641 91.4601 50.8546 89.1121C50.1 90.8787 48.9705 92.4599 47.5445 93.7463C46.1184 95.0328 44.4299 95.9936 42.596 96.5622C40.762 97.1308 38.8264 97.2937 36.9233 97.0395C35.0201 96.7854 33.195 96.1202 31.5743 95.0902C29.9536 94.0601 28.576 92.6898 27.5371 91.0742C26.4982 89.4586 25.8228 87.6363 25.5576 85.7336C25.2924 83.8308 25.4438 81.8931 26.0014 80.0547C26.5589 78.2164 27.5092 76.5213 28.7865 75.0869Z" fill="black"/>
<path d="M39.2818 120.855L37.9292 120.475L37.932 120.33L38.3374 98.2869L38.3576 97.1878L38.358 97.1558L38.429 93.3044L38.5315 87.7225V87.7217L38.6012 83.9381H38.6385L38.7099 88.0373L38.8027 93.3726L38.8692 97.1582V97.1862L38.872 97.3423V97.3431L39.0005 104.723L39.0139 105.456L39.2793 120.708L39.2818 120.855Z" fill="#3F3D56"/>
<path d="M40.7078 103.823L38.5186 104.976L38.8237 105.556L41.0129 104.403L40.7078 103.823Z" fill="#3F3D56"/>
<path d="M210.244 41.0506C193.528 40.0617 176.762 40.3196 160.084 41.8221C152.046 42.5491 143.88 43.3344 135.99 45.0889C129.635 46.5021 122.259 48.8905 118.3 54.4537C117.47 55.5746 116.911 56.8723 116.667 58.2453C116.422 59.6182 116.498 61.0292 116.889 62.3679C117.833 65.5392 120.182 68.179 122.683 70.2466C128.44 75.0052 135.582 77.7744 141.963 81.555C153.612 88.4576 164.273 97.7615 171.116 109.58C174.128 114.781 176.992 121.697 173.639 127.427C170.354 133.041 163.021 134.976 157.041 135.888C149.545 137.031 141.824 136.721 134.297 136.081C126.046 135.311 117.84 134.108 109.714 132.478C93.7945 129.419 78.0202 125.529 61.8797 123.759C53.7867 122.807 45.6256 122.571 37.4912 123.054C30.1448 123.549 22.7356 124.712 15.8342 127.363C10.5162 129.405 4.84738 132.495 1.97477 137.649C-0.794302 142.617 0.285723 148.345 3.3009 152.929C6.92877 158.444 12.5859 162.223 18.4675 164.985C25.1642 168.13 32.3269 170.168 39.4988 171.902C43.1362 172.781 46.7933 173.576 50.4507 174.367C51.2137 174.532 51.5397 173.359 50.7739 173.193C43.3985 171.599 36.0017 169.999 28.8094 167.69C22.1537 165.554 15.3425 162.818 9.89205 158.332C5.48265 154.703 1.29021 149.403 1.55048 143.376C1.81284 137.301 6.90706 133.059 11.9001 130.448C18.14 127.185 25.2293 125.596 32.1761 124.765C40.1303 123.878 48.1519 123.769 56.1272 124.439C72.2296 125.665 87.9723 129.335 103.76 132.537C119.098 135.647 134.914 138.527 150.632 137.729C156.862 137.413 163.537 136.519 169.038 133.373C171.557 131.932 173.828 129.901 175.108 127.257C176.261 124.741 176.626 121.935 176.154 119.208C175.262 113.218 171.706 107.663 168.158 102.892C164.269 97.7169 159.757 93.0408 154.725 88.9694C149.203 84.5225 143.249 80.6413 136.952 77.3841C133.613 75.625 130.226 73.9334 127.044 71.8959C123.993 69.9423 120.983 67.5917 119.12 64.4202C117.508 61.6772 117.212 58.5466 118.891 55.7646C120.589 52.9508 123.514 50.9883 126.398 49.5542C133.348 46.099 141.428 45.1742 149.032 44.2264C165.358 42.1986 181.812 41.3777 198.259 41.7705C202.257 41.8646 206.252 42.0302 210.244 42.2673C211.026 42.3133 211.023 41.0965 210.244 41.0506Z" fill="black"/>
<path d="M199.64 2.049L202.165 0.0282996C200.203 -0.188244 199.397 0.882183 199.067 1.72943C197.535 1.09272 195.867 1.92716 195.867 1.92716L200.919 3.76232C200.664 3.08116 200.22 2.48683 199.64 2.049Z" fill="#3F3D56"/>
<path d="M187.386 8.44622L189.911 6.42552C187.949 6.20898 187.143 7.27939 186.813 8.12664C185.281 7.48994 183.613 8.32438 183.613 8.32438L188.665 10.1595C188.41 9.47838 187.966 8.88405 187.386 8.44622Z" fill="#3F3D56"/>
<path d="M199.64 18.5751L202.165 16.5544C200.203 16.3379 199.397 17.4083 199.067 18.2555C197.535 17.6188 195.867 18.4533 195.867 18.4533L200.919 20.2884C200.664 19.6073 200.22 19.0129 199.64 18.5751Z" fill="#3F3D56"/>
<path d="M161.787 21.5689C165.988 21.5689 169.394 18.1609 169.394 13.957C169.394 9.75297 165.988 6.34497 161.787 6.34497C157.585 6.34497 154.179 9.75297 154.179 13.957C154.179 18.1609 157.585 21.5689 161.787 21.5689Z" fill="#FF6583"/>
<path d="M185.642 37.413H148.322C148.275 37.4136 148.229 37.4099 148.183 37.4019L165.834 6.81193C165.941 6.62137 166.098 6.46285 166.287 6.35254C166.476 6.24223 166.69 6.18411 166.909 6.18411C167.128 6.18411 167.343 6.24223 167.532 6.35254C167.721 6.46285 167.877 6.62137 167.985 6.81193L179.83 27.3395L180.397 28.3216L185.642 37.413Z" fill="#6C63FF"/>
<path d="M206.42 37.4133H174.142L180.397 28.3227L180.846 27.6676L188.997 15.8209C189.141 15.6396 189.322 15.4907 189.527 15.3839C189.733 15.2771 189.958 15.2148 190.189 15.201C190.42 15.1872 190.652 15.2222 190.868 15.3038C191.085 15.3854 191.282 15.5117 191.447 15.6745C191.489 15.7207 191.528 15.7696 191.564 15.8209L206.42 37.4133Z" fill="#6C63FF"/>
<path d="M153.176 107.572C156.713 109.341 158.867 111.678 158.867 114.24C158.867 119.761 148.883 124.236 136.568 124.236C131.213 124.236 126.301 123.39 122.457 121.98C126.54 124.022 132.467 125.307 139.065 125.307C151.381 125.307 161.364 120.832 161.364 115.311C161.364 112.191 158.173 109.405 153.176 107.572Z" fill="#F1F1F1"/>
<path d="M161.044 111.364C165.036 113.36 167.466 115.997 167.466 118.889C167.466 125.118 156.201 130.168 142.304 130.168C136.262 130.168 130.719 129.213 126.382 127.622C130.989 129.926 137.676 131.376 145.122 131.376C159.019 131.376 170.284 126.326 170.284 120.097C170.284 116.576 166.684 113.433 161.044 111.364Z" fill="#F1F1F1"/>
<path d="M150.165 109.242C152.657 110.489 154.174 112.135 154.174 113.94C154.174 117.83 147.14 120.983 138.464 120.983C135.083 121.027 131.721 120.489 128.522 119.393C131.399 120.832 135.574 121.737 140.223 121.737C148.9 121.737 155.934 118.584 155.934 114.695C155.934 112.497 153.686 110.534 150.165 109.242Z" fill="#F1F1F1"/>
<path d="M115.148 108.528C115.148 108.528 115.696 116.538 131.394 116.538C147.093 116.538 151.78 108.528 151.78 108.528H115.148Z" fill="#3F3D56"/>
<path d="M137.43 87.5134C135.164 85.7907 132.319 85.0121 129.492 85.3408C132.019 85.9502 134.25 87.4306 135.794 89.522C137.339 91.6135 138.098 94.1824 137.938 96.7779C137.778 99.3734 136.71 101.83 134.921 103.716C133.131 105.602 130.735 106.797 128.153 107.091C130.623 107.688 133.223 107.415 135.516 106.32C137.809 105.224 139.654 103.372 140.743 101.074C141.831 98.7773 142.096 96.1751 141.493 93.7054C140.89 91.2358 139.455 89.0492 137.43 87.5134Z" fill="#3F3D56"/>
<path d="M132.286 83.8953H131.216V109.389H132.286V83.8953Z" fill="#3F3D56"/>
<path d="M202.63 64.9536L202.624 64.9438L202.609 64.321L205.963 59.4496L202.613 63.8549L202.601 63.9866L202.487 59.0073L205.383 53.9567L202.479 58.1326L202.509 47.8169L202.509 47.7826L202.508 47.8164L202.315 55.9465L199.676 52.6441L202.307 56.6469L202.249 61.1007L199.82 56.754L202.24 61.7555L202.208 64.2321L202.119 71.0932L202.113 71.6059C202.337 71.6076 202.558 71.6039 202.777 71.5948L202.625 65.0045L202.63 64.9536Z" fill="#CBCBCB"/>
<path d="M186.574 67.0956L186.569 67.0857L186.554 66.463L189.907 61.5916L186.558 65.9969L186.546 66.1285L186.432 61.1493L189.328 56.0987L186.423 60.2746L186.454 49.9589L186.453 49.9246L186.453 49.9583L186.26 58.0885L183.621 54.786L186.252 58.7889L186.194 63.2427L183.765 58.896L186.185 63.8975L186.153 66.374L186.064 73.2352L186.058 73.7479C186.282 73.7496 186.503 73.7459 186.722 73.7367L186.57 67.1464L186.574 67.0956Z" fill="#CBCBCB"/>
<path d="M194.424 60.3126L194.418 60.3027L194.403 59.68L197.757 54.8086L194.407 59.2139L194.395 59.3455L194.281 54.3663L197.177 49.3157L194.272 53.4916L194.303 43.1759L194.303 43.1416L194.302 43.1753L194.109 51.3055L191.47 48.003L194.101 52.0059L194.043 56.4597L191.614 52.113L194.034 57.1145L194.002 59.591L193.913 66.4522L193.907 66.9649C194.131 66.9666 194.352 66.9629 194.571 66.9537L194.419 60.3634L194.424 60.3126Z" fill="#CBCBCB"/>
<path d="M61.821 178.858C64.1856 178.858 66.1024 176.94 66.1024 174.574C66.1024 172.208 64.1856 170.29 61.821 170.29C59.4564 170.29 57.5396 172.208 57.5396 174.574C57.5396 176.94 59.4564 178.858 61.821 178.858Z" fill="#6C63FF"/>
<path d="M290.35 253.653L286.386 255.126L278.819 240.53L284.669 238.355L290.35 253.653Z" fill="#FFB7B7"/>
<path d="M292.787 257.121L280.007 261.873L279.946 261.711C279.456 260.391 279.51 258.93 280.097 257.65C280.683 256.369 281.753 255.375 283.073 254.884L290.879 251.982L292.787 257.121Z" fill="#2F2E41"/>
<path d="M251.342 257.771L247.113 257.771L245.102 241.452L251.342 241.452L251.342 257.771Z" fill="#FFB7B7"/>
<path d="M252.075 261.873L238.441 261.872V261.7C238.441 260.291 239 258.941 239.995 257.945C240.991 256.949 242.34 256.39 243.748 256.39L252.075 256.39L252.075 261.873Z" fill="#2F2E41"/>
<path d="M270.701 144.589L269.321 141.828L257.595 147.695L257.939 150.11L255.698 153.044C255.698 153.044 251.904 155.114 252.593 162.017L253.283 168.574L254.146 177.029L248.11 197.908L245.006 225.517L242.764 247.777L253.628 247.259L263.63 211.022L281.22 250.02L293.292 246.914L276.737 208.261L274.667 192.041C274.667 192.041 276.047 183.413 269.494 177.547L270.528 174.441V170.613L273.977 152.354L270.701 144.589Z" fill="#2F2E41"/>
<path opacity="0.2" d="M271.023 184.049L263.436 210.967L263.826 211.077L271.413 184.159L271.023 184.049Z" fill="black"/>
<path d="M270.356 177.029H253.456V178.754H270.356V177.029Z" fill="#3F3D56"/>
<path d="M253.456 179.79C253.837 179.79 254.146 179.017 254.146 178.064C254.146 177.111 253.837 176.339 253.456 176.339C253.075 176.339 252.766 177.111 252.766 178.064C252.766 179.017 253.075 179.79 253.456 179.79Z" fill="#3F3D56"/>
<path d="M265.487 140.125C269.942 137.688 271.58 132.099 269.144 127.641C266.709 123.183 261.123 121.545 256.667 123.982C252.212 126.419 250.575 132.008 253.01 136.466C255.446 140.924 261.032 142.562 265.487 140.125Z" fill="#FFB7B7"/>
<path d="M275.145 128.77C279.637 128.77 283.279 125.126 283.279 120.631C283.279 116.137 279.637 112.493 275.145 112.493C270.654 112.493 267.012 116.137 267.012 120.631C267.012 125.126 270.654 128.77 275.145 128.77Z" fill="#2F2E41"/>
<path d="M285.467 119.76C285.788 120.838 285.882 121.971 285.743 123.088C285.604 124.204 285.235 125.279 284.66 126.246C284.084 127.213 283.315 128.049 282.4 128.703C281.485 129.358 280.445 129.815 279.345 130.046C278.244 130.278 277.108 130.278 276.007 130.048C274.907 129.818 273.866 129.362 272.95 128.709C272.035 128.056 271.264 127.22 270.688 126.254C270.111 125.288 269.741 124.213 269.601 123.097C270.184 125.055 271.481 126.722 273.235 127.767C274.989 128.812 277.072 129.159 279.07 128.739C281.068 128.318 282.835 127.162 284.02 125.498C285.205 123.835 285.721 121.787 285.467 119.76Z" fill="#2F2E41"/>
<path d="M253.336 129.5C253.097 131.603 253.558 133.727 254.648 135.541C255.738 137.356 257.396 138.76 259.364 139.537C261.333 140.313 263.502 140.418 265.536 139.835C267.57 139.253 269.356 138.015 270.616 136.315C271.876 134.614 272.54 132.545 272.505 130.428C272.471 128.311 271.739 126.265 270.424 124.606C269.11 122.947 267.285 121.769 265.233 121.253C263.181 120.737 261.016 120.913 259.074 121.753C257.468 120.457 255.476 120.859 253.857 122.227C252.027 123.773 251.483 124.836 250.063 127.379C251.46 127.576 251.939 129.303 253.336 129.5Z" fill="#2F2E41"/>
<path d="M287.129 157.164C287.027 159.89 286.823 165.256 286.823 165.53C286.823 165.819 282.757 174.242 281.001 177.867V177.869C280.876 178.125 280.764 178.356 280.664 178.56C280.528 178.842 280.315 179.078 280.049 179.242C279.783 179.405 279.475 179.489 279.163 179.483L271.487 179.345C271.066 179.338 270.663 179.168 270.363 178.871C270.064 178.573 269.89 178.172 269.88 177.75L269.024 143.959C269.021 143.848 269.04 143.737 269.081 143.633C269.122 143.53 269.183 143.435 269.26 143.355C269.338 143.275 269.431 143.212 269.534 143.169C269.636 143.125 269.746 143.103 269.858 143.103H279.757C280.175 143.103 280.584 143.221 280.939 143.443C281.293 143.666 281.577 143.983 281.759 144.36L286.51 154.195C286.956 155.119 287.168 156.139 287.129 157.164Z" fill="#6C63FF"/>
<path d="M269.746 175.431C267.777 174.236 266.007 172.74 264.502 170.996C261.004 167.06 258.877 162.095 258.44 156.846C258.05 152.355 258.94 149.017 261.087 146.925C263.815 144.264 267.529 144.651 267.686 144.669L267.852 144.688L270.368 146.818L269.656 147.66L267.405 145.754C266.716 145.719 263.902 145.712 261.847 147.723C259.955 149.575 259.178 152.612 259.538 156.75C259.954 161.748 261.974 166.476 265.297 170.23C266.73 171.889 268.411 173.318 270.279 174.465L269.746 175.431Z" fill="#6C63FF"/>
<path d="M284.03 162.593L270.618 165.35L270.692 165.71L284.104 162.953L284.03 162.593Z" fill="#3F3D56"/>
<path d="M275.19 143.095L274.823 143.11L275.694 164.464L276.062 164.449L275.19 143.095Z" fill="#3F3D56"/>
<path d="M287.13 157.164C287.027 159.89 286.823 165.256 286.823 165.53C286.823 165.819 282.757 174.242 281.001 177.867L284.275 158.846C284.402 158.114 284.72 157.429 285.198 156.861C285.676 156.293 286.297 155.862 286.996 155.612C287.106 156.122 287.151 156.643 287.13 157.164Z" fill="#3F3D56"/>
<path d="M267.015 197.027C267.304 196.653 267.509 196.221 267.614 195.759C267.718 195.298 267.72 194.819 267.62 194.357C267.52 193.894 267.319 193.46 267.033 193.083C266.747 192.707 266.381 192.398 265.963 192.178L266.628 184.813L262.254 183.317L261.46 193.731C261.138 194.459 261.093 195.28 261.335 196.039C261.577 196.798 262.089 197.441 262.774 197.847C263.459 198.254 264.269 198.395 265.05 198.244C265.832 198.092 266.531 197.66 267.015 197.027Z" fill="#FFB7B7"/>
<path d="M267.586 189.901L259.835 189.619L260.163 152.216C260.157 151.158 260.484 150.125 261.098 149.262C261.711 148.4 262.58 147.752 263.581 147.411C264.517 147.1 265.528 147.099 266.464 147.408C267.526 147.768 268.438 148.471 269.056 149.407C269.674 150.343 269.963 151.458 269.878 152.576L267.586 189.901Z" fill="#CBCBCB"/>
<path d="M335.585 262H181.154C181.047 262 180.944 261.957 180.868 261.881C180.792 261.805 180.749 261.702 180.749 261.594C180.749 261.487 180.792 261.384 180.868 261.308C180.944 261.232 181.047 261.189 181.154 261.189H335.585C335.692 261.189 335.796 261.232 335.872 261.308C335.948 261.384 335.99 261.487 335.99 261.594C335.99 261.702 335.948 261.805 335.872 261.881C335.796 261.957 335.692 262 335.585 262Z" fill="#CBCBCB"/>
</g>
<defs>
<clipPath id="clip0_29_284">
<rect width="337.246" height="262" fill="white" transform="translate(0.376953)"/>
</clipPath>
</defs>
</svg>
