<svg width="300" height="262" viewBox="0 0 300 262" fill="none" xmlns="http://www.w3.org/2000/svg">
<g clip-path="url(#clip0_29_428)">
<path opacity="0.998" d="M271.008 94.5464H253.714V103.535H271.008V94.5464Z" fill="#F2F2F2"/>
<path opacity="0.998" d="M258.37 28.9632H241.076V37.9517H258.37V28.9632Z" fill="#F2F2F2"/>
<path opacity="0.998" d="M270.676 39.2834H253.381V48.2719H270.676V39.2834Z" fill="#F2F2F2"/>
<path opacity="0.998" d="M237.418 29.629H220.123V38.6175H237.418V29.629Z" fill="#F2F2F2"/>
<path opacity="0.998" d="M17.5809 126.173H0.286621V135.161H17.5809V126.173Z" fill="#F2F2F2"/>
<path opacity="0.998" d="M272.006 50.2694H254.712V59.2579H272.006V50.2694Z" fill="#F2F2F2"/>
<path opacity="0.998" d="M249.723 39.9492H232.429V48.9377H249.723V39.9492Z" fill="#F2F2F2"/>
<path opacity="0.998" d="M291.961 118.849H274.667V127.837H291.961V118.849Z" fill="#F2F2F2"/>
<path opacity="0.998" d="M271.008 119.515H253.714V128.503H271.008V119.515Z" fill="#F2F2F2"/>
<path opacity="0.998" d="M17.5809 94.5464H0.286621V103.535H17.5809V94.5464Z" fill="#F2F2F2"/>
<path opacity="0.998" d="M29.8863 104.867H12.592V113.855H29.8863V104.867Z" fill="#F2F2F2"/>
<path opacity="0.998" d="M123.342 0H106.048V8.98856H123.342V0Z" fill="#F2F2F2"/>
<path opacity="0.998" d="M259.701 165.789H242.406V174.778H259.701V165.789Z" fill="#F2F2F2"/>
<path opacity="0.998" d="M31.2166 115.853H13.9224V124.841H31.2166V115.853Z" fill="#F2F2F2"/>
<path opacity="0.998" d="M135.648 10.3202H118.353V19.3088H135.648V10.3202Z" fill="#F2F2F2"/>
<path opacity="0.998" d="M72.4569 71.2427H55.1626V80.2313H72.4569V71.2427Z" fill="#F2F2F2"/>
<path opacity="0.998" d="M84.7625 81.5629H67.4683V90.5515H84.7625V81.5629Z" fill="#F2F2F2"/>
<path opacity="0.998" d="M117.688 75.9034H100.394V84.892H117.688V75.9034Z" fill="#F2F2F2"/>
<path opacity="0.998" d="M86.0926 92.5489H68.7983V101.537H86.0926V92.5489Z" fill="#F2F2F2"/>
<path opacity="0.998" d="M282.981 165.789H265.687V174.778H282.981V165.789Z" fill="#F2F2F2"/>
<path d="M167.602 19.1656C174.268 19.1656 180.66 21.8162 185.374 26.5342C190.087 31.2523 192.735 37.6513 192.735 44.3236V55.0566H142.469V44.3236C142.469 37.6513 145.117 31.2523 149.83 26.5342C154.543 21.8162 160.936 19.1656 167.602 19.1656Z" fill="#CACACA"/>
<path d="M167.778 78.2804C183.6 78.2804 196.427 69.4582 196.427 58.5755C196.427 47.6927 183.6 38.8705 167.778 38.8705C151.956 38.8705 139.13 47.6927 139.13 58.5755C139.13 69.4582 151.956 78.2804 167.778 78.2804Z" fill="#CACACA"/>
<path d="M149.413 77.6645C149.413 77.6645 155.399 108.981 149.413 117.427C143.426 125.873 167.705 129.216 167.705 129.216L192.835 120.067L196.35 97.5459C196.35 97.5459 181.051 88.9235 184.221 71.5057L149.413 77.6645Z" fill="#FFB9B9"/>
<path d="M223.585 183.23C223.585 183.23 225.168 190.091 216.554 191.323C211.468 192.072 206.296 192.01 201.229 191.14L199.33 173.905H219.368L223.585 183.23Z" fill="#FFB9B9"/>
<path d="M71.4823 174.448C71.4823 174.448 67.6776 189.925 76.2914 191.323C84.9053 192.721 116.534 192.731 116.534 192.731V174.421L102.213 177.484L88.7699 164.581L71.4823 174.448Z" fill="#FFB9B9"/>
<path opacity="0.1" d="M151.262 87.7816L117.602 94.9059C117.602 94.9059 104.771 95.4352 96.5092 112.5C88.2478 129.565 70.3184 178.303 70.3184 178.303C70.3184 178.303 85.6171 162.82 103.54 179.358L115.493 157.719L112.856 192.029H205.473V175.84C205.473 175.84 224.806 186.22 223.402 192.026C223.402 192.026 239.948 149.353 236.373 129.961C235.297 123.966 234.637 117.904 234.398 111.818C234.186 106.805 232.431 101.981 229.371 98.0067C226.311 94.0328 222.098 91.1041 217.31 89.6226C215.567 89.0866 213.651 88.584 211.523 88.1345C191.661 83.9132 186.579 88.1345 186.579 88.1345C186.579 88.1345 182.731 100.665 182.801 106.345C182.887 113.645 172.431 118.486 172.431 118.486C172.431 118.486 156.963 114.791 156.261 111.801C155.559 108.812 150.025 91.3005 151.262 87.7816Z" fill="black"/>
<path d="M151.262 87.0792L117.601 94.2035C117.601 94.2035 104.77 94.7328 96.5091 111.798C88.2478 128.863 70.3149 177.607 70.3149 177.607C70.3149 177.607 85.6137 162.124 103.537 178.663L115.49 157.024L112.852 191.323H205.473V175.137C205.473 175.137 224.806 185.517 223.402 191.323C223.402 191.323 239.948 148.651 236.373 129.259C235.297 123.264 234.637 117.202 234.397 111.115C234.186 106.103 232.431 101.278 229.371 97.3043C226.311 93.3303 222.098 90.4016 217.309 88.9202C215.567 88.3842 213.651 87.8815 211.523 87.4321C191.661 83.2108 186.579 87.4321 186.579 87.4321C186.579 87.4321 182.731 99.9628 182.801 105.642C182.887 112.943 172.431 117.783 172.431 117.783C172.431 117.783 156.962 114.088 156.261 111.099C155.559 108.109 150.025 90.5981 151.262 87.0792Z" fill="#6C63FF"/>
<path opacity="0.1" d="M185.658 85.5844C184.244 81.5774 183.927 77.2646 184.74 73.0937L149.932 79.2492C149.932 79.2492 150.434 81.8825 151.003 85.8275C153.252 88.1635 155.952 90.0172 158.939 91.2759C161.926 92.5346 165.138 93.172 168.379 93.1493C171.62 93.1265 174.823 92.4442 177.792 91.1437C180.761 89.8432 183.435 87.9518 185.651 85.5844H185.658Z" fill="black"/>
<path d="M191.594 67.6373C191.632 70.7793 191.052 73.8981 189.886 76.8155C188.719 79.7329 186.991 82.3918 184.798 84.6405C182.605 86.8891 179.992 88.6835 177.106 89.921C174.221 91.1586 171.12 91.8151 167.981 91.8531C164.842 91.8912 161.726 91.31 158.812 90.1427C155.897 88.9754 153.241 87.245 150.995 85.0501C146.458 80.6174 143.866 74.5622 143.789 68.2165C143.792 68.0234 143.792 67.8304 143.792 67.6373C143.791 64.1547 144.549 60.7137 146.013 57.5547C147.478 54.3957 149.614 51.595 152.272 49.3481C154.931 47.1013 158.047 45.4626 161.404 44.5464C164.76 43.6302 168.276 43.4588 171.706 44.044C177.001 44.9465 181.838 47.6091 185.435 51.6018C189.032 55.5945 191.18 60.6843 191.531 66.0493C191.573 66.5753 191.594 67.1046 191.594 67.6373Z" fill="#FFB9B9"/>
<path d="M159.364 45.2092L159.397 45.1892C154.814 46.8839 150.861 49.9446 148.07 53.9586C145.279 57.9726 143.785 62.7468 143.789 67.6373C143.789 67.8304 143.789 68.0235 143.789 68.2165C144.532 68.1964 145.263 68.0207 145.934 67.7005C151.761 64.9773 155.247 56.6479 156.63 50.8387C157.129 48.7713 157.598 46.4176 159.364 45.2092Z" fill="#090814"/>
<path d="M177.659 45.8816C175.767 45.0116 173.769 44.3948 171.716 44.0473C173.399 44.4351 174.903 45.3806 175.983 46.7306C176.512 47.451 176.951 48.2336 177.29 49.0609C174.109 47.6686 170.663 46.9847 167.192 47.0566C163.721 47.1284 160.306 47.9543 157.185 49.4771C158.685 52.7695 163.338 54.5639 166.444 55.7657C169.846 57.0796 173.282 58.2814 176.754 59.3711L173.681 56.8743L180.622 57.9796C180.697 56.5969 180.533 55.2116 180.137 53.8848C181.467 54.9568 183.23 55.3163 184.673 56.2152C187.377 57.923 188.505 61.2088 189.978 64.0552C190.367 64.8076 190.826 65.5766 191.528 66.0526C191.244 61.7522 189.806 57.6082 187.365 54.0579C184.924 50.5077 181.571 47.6829 177.659 45.8816Z" fill="#090814"/>
<path d="M141.062 63.1497C141.062 63.1497 165.673 32.522 194.145 63.1497L191.684 56.2884C191.684 56.2884 178.324 36.7599 168.836 40.9745C159.347 45.1892 150.028 48.1887 150.028 48.1887L141.062 63.1497Z" fill="#CACACA"/>
<path opacity="0.1" d="M120.848 129.129C120.848 129.129 115.576 143.204 122.956 155.872C130.336 168.539 116.454 173.819 116.454 173.819" fill="black"/>
<path opacity="0.1" d="M206.271 116.462C206.271 116.462 215.411 128.074 209.434 138.454C203.458 148.834 203.81 173.819 203.81 173.819" fill="black"/>
<path d="M112.762 184.199H214.356C216.594 184.199 218.74 185.089 220.322 186.673C221.905 188.257 222.794 190.405 222.794 192.645H104.328C104.328 190.406 105.217 188.258 106.798 186.674C108.38 185.09 110.525 184.2 112.762 184.199Z" fill="#090814"/>
<path d="M123.099 126.136H204.023C205.726 126.136 207.413 126.472 208.987 127.125C210.56 127.777 211.99 128.733 213.195 129.939C214.399 131.145 215.354 132.576 216.006 134.151C216.658 135.726 216.994 137.415 216.994 139.12V186.133H110.128V139.12C110.128 135.676 111.495 132.374 113.927 129.939C116.36 127.504 119.659 126.136 123.099 126.136Z" fill="#090814"/>
<path d="M163.471 165.11C166.967 165.11 169.8 162.274 169.8 158.775C169.8 155.276 166.967 152.439 163.471 152.439C159.976 152.439 157.142 155.276 157.142 158.775C157.142 162.274 159.976 165.11 163.471 165.11Z" fill="white"/>
<path opacity="0.1" d="M142.469 49.3372C142.469 49.3372 166.654 25.1414 192.738 48.8945" stroke="black" stroke-miterlimit="10"/>
<path d="M198.848 47.7959H196.42V61.575H198.848V47.7959Z" fill="#CACACA"/>
<path d="M193.181 56.7112C195.4 56.7112 197.528 57.5936 199.098 59.1645C200.667 60.7353 201.548 62.8657 201.548 65.0872V65.6265C201.548 67.848 200.667 69.9784 199.098 71.5492C197.528 73.12 195.4 74.0025 193.181 74.0025V56.7112Z" fill="#6C63FF"/>
<path d="M195.339 57.7931C195.339 56.7488 194.493 55.9022 193.45 55.9022C192.407 55.9022 191.561 56.7488 191.561 57.7931V72.9239C191.561 73.9682 192.407 74.8148 193.45 74.8148C194.493 74.8148 195.339 73.9682 195.339 72.9239V57.7931Z" fill="#090814"/>
<path d="M136.11 61.8447H138.538V48.0655H136.11V61.8447Z" fill="#CACACA"/>
<path d="M141.777 74.2722C139.558 74.2722 137.429 73.3897 135.86 71.8189C134.291 70.2481 133.409 68.1176 133.409 65.8961V65.3568C133.409 64.2569 133.626 63.1677 134.046 62.1515C134.467 61.1352 135.083 60.2119 135.86 59.4341C136.637 58.6563 137.559 58.0393 138.575 57.6184C139.59 57.1975 140.678 56.9808 141.777 56.9808V74.2722Z" fill="#6C63FF"/>
<path d="M139.618 73.1902C139.618 74.2345 140.464 75.0811 141.507 75.0811C142.551 75.0811 143.396 74.2345 143.396 73.1902V58.0595C143.396 57.0151 142.551 56.1685 141.507 56.1685C140.464 56.1685 139.618 57.0151 139.618 58.0595V73.1902Z" fill="#090814"/>
<path d="M196.134 33.0679C192.845 26.2233 185.681 17.9472 170.239 17.2847V17.2647H170.053L164.582 17.5244V17.551C149.243 18.2568 142.113 26.503 138.834 33.3243C136.65 37.9485 135.49 42.9908 135.435 48.1055L137.324 48.0589L139.213 48.0156C139.294 43.462 140.341 38.9776 142.282 34.859C146.446 26.2966 154.109 21.7457 165.054 21.3229L169.893 21.0532C180.845 21.4727 188.511 26.0302 192.672 34.5893C194.617 38.7095 195.666 43.1963 195.748 47.7526L197.637 47.7959L199.526 47.8425C199.472 42.7305 198.315 37.6907 196.134 33.0679Z" fill="#6C63FF"/>
<path d="M282.436 192.755H24.7812V262H282.436V192.755Z" fill="#D6D6E3"/>
<path opacity="0.1" d="M282.436 197.415H24.7812V204.74H282.436V197.415Z" fill="black"/>
<path d="M299.713 191.756H7.49707V200.745H299.713V191.756Z" fill="#D6D6E3"/>
</g>
<defs>
<clipPath id="clip0_29_428">
<rect width="299.427" height="262" fill="white" transform="translate(0.286621)"/>
</clipPath>
</defs>
</svg>
