<svg width="248" height="263" viewBox="0 0 248 263" fill="none" xmlns="http://www.w3.org/2000/svg">
<g clip-path="url(#clip0_29_384)">
<path d="M95.0358 42.19C101.507 42.19 106.753 36.9421 106.753 30.4685C106.753 23.9949 101.507 18.747 95.0358 18.747C88.5644 18.747 83.3184 23.9949 83.3184 30.4685C83.3184 36.9421 88.5644 42.19 95.0358 42.19Z" fill="#FD6584"/>
<path d="M121.26 24.9182C120.93 23.8343 120.29 22.8707 119.419 22.1461C118.548 21.4215 117.484 20.9674 116.358 20.8399C116.332 20.8377 116.306 20.8377 116.279 20.8399C116.248 20.8301 116.215 20.8227 116.183 20.818C112.259 20.3087 107.897 21.5467 104.962 24.2421C103.872 25.227 103 26.4293 102.403 27.7717C101.859 27.028 101.142 26.4283 100.313 26.0244C99.4853 25.6205 98.5713 25.4247 97.6504 25.4538C96.4628 25.5323 95.3283 25.9753 94.4016 26.7224C93.4749 27.4696 92.8011 28.4844 92.4721 29.6286C92.4359 29.7684 92.4458 29.9161 92.5004 30.0498C92.555 30.1835 92.6512 30.296 92.7749 30.3705C93.1278 30.6725 93.5475 30.8862 93.9992 30.9939C94.9691 31.2002 95.9477 31.389 96.9263 31.5602C98.8397 31.8938 100.763 32.1645 102.697 32.3723C103.974 32.5084 105.254 32.6167 106.537 32.6972C109.188 32.864 111.851 32.9035 114.506 32.8201C115.823 32.7762 117.087 32.7323 118.289 32.1528C119.165 31.7218 119.914 31.0696 120.461 30.2608C120.977 29.4827 121.315 28.6012 121.453 27.6781C121.591 26.7551 121.525 25.813 121.26 24.9182Z" fill="#E6E6E6"/>
<path d="M97.1548 41.9951C97.1326 41.504 97.0501 41.0174 96.9091 40.5464C96.5771 39.4626 95.9359 38.4993 95.0643 37.7749C94.1928 37.0504 93.1287 36.5962 92.0028 36.4682C91.978 36.466 91.953 36.466 91.9282 36.4682C91.8951 36.4588 91.8614 36.4514 91.8273 36.4462C89.6559 36.1801 87.4525 36.4067 85.3807 37.1091C82.1947 38.1759 79.3993 40.3269 78.052 43.3999C77.5072 42.6558 76.7892 42.0558 75.9603 41.6519C75.1314 41.248 74.2165 41.0524 73.295 41.082C72.1074 41.1605 70.9729 41.6035 70.0462 42.3507C69.1195 43.0978 68.4457 44.1126 68.1167 45.2568C68.0825 45.3966 68.0934 45.5437 68.1478 45.6769C68.2022 45.8101 68.2973 45.9228 68.4195 45.9987C68.7729 46.2999 69.1924 46.5134 69.6438 46.6221C70.618 46.8284 71.5923 47.0172 72.5753 47.1884C74.4886 47.522 76.4108 47.7928 78.3417 48.0006C82.2645 48.4218 86.2118 48.5714 90.1553 48.4483C91.4674 48.4044 92.7357 48.3605 93.9381 47.7811C94.813 47.3498 95.5603 46.6976 96.106 45.889C96.8753 44.7422 97.244 43.3733 97.1548 41.9951Z" fill="#E6E6E6"/>
<path d="M183.908 189.918H173.227V23.1127C172.507 22.5815 171.783 22.0547 171.05 21.5411C170.905 21.4401 170.76 21.3392 170.615 21.2382C162.167 15.327 153.029 10.4708 143.403 6.77769L141.332 35.3563L141.331 35.358H128.004V1.98825C127.135 1.77315 126.266 1.57121 125.388 1.38244V35.358H75.062V0.500061C74.1888 0.662489 73.3155 0.829309 72.4465 1.0093V35.358H58.6802L58.6801 35.3563L56.5078 5.38608C47.1401 8.63436 38.1874 12.9752 29.835 18.3189C29.5453 18.5033 29.2557 18.6876 28.9661 18.8808C28.3824 19.2583 27.7988 19.6446 27.2239 20.0354V189.918H12.1848C10.2606 189.917 8.36562 190.388 6.66581 191.289C4.96601 192.191 3.51335 193.497 2.43517 195.091C1.35699 196.685 0.686226 198.52 0.481689 200.433C0.277152 202.347 0.545085 204.282 1.262 206.068C1.4771 206.608 1.73386 207.131 2.02997 207.631C2.41241 208.284 2.8562 208.898 3.35528 209.466C4.45774 210.723 5.81568 211.73 7.33834 212.42C8.861 213.109 10.5133 213.466 12.1848 213.465H183.908C187.03 213.465 190.023 212.225 192.231 210.017C194.438 207.809 195.678 204.814 195.678 201.692C195.678 198.569 194.438 195.574 192.231 193.366C190.023 191.158 187.03 189.918 183.908 189.918ZM138.461 75.0337L130.154 189.918H69.8574L61.5502 75.0337H138.461ZM141.143 37.974L139.094 66.3137H128.004V37.974H141.143ZM125.388 37.974V66.3137H105.363C104.962 65.5266 104.351 64.8657 103.598 64.4041C102.845 63.9424 101.979 63.698 101.096 63.6977H98.4813C97.5982 63.698 96.7323 63.9424 95.9793 64.4041C95.2264 64.8657 94.6156 65.5266 94.2146 66.3137H75.062V37.974H125.388ZM72.4465 66.3137H60.9182L58.8689 37.974H72.4465V66.3137Z" fill="#F2F2F2"/>
<path d="M1.4541 208.903C5.26643 213.422 9.3899 217.668 13.7943 221.612L180.37 222.051C184.774 218.107 188.898 213.861 192.71 209.342L1.4541 208.903Z" fill="#3F3D56"/>
<path d="M85.5757 166.404V211.427H117.106V166.404C117.107 166.08 117.004 165.764 116.812 165.504C116.62 165.243 116.349 165.051 116.04 164.955C115.894 164.907 115.742 164.883 115.588 164.885H87.0985C86.8988 164.884 86.7009 164.923 86.5163 164.999C86.3316 165.076 86.1638 165.187 86.0224 165.328C85.881 165.469 85.7687 165.637 85.6921 165.822C85.6154 166.006 85.5759 166.204 85.5757 166.404ZM97.8808 181.874C97.8892 180.986 98.2475 180.138 98.8778 179.513C99.5081 178.889 100.359 178.538 101.247 178.538C102.134 178.538 102.985 178.889 103.616 179.513C104.246 180.138 104.604 180.986 104.613 181.874V187.098C104.608 187.988 104.251 188.84 103.621 189.468C102.99 190.095 102.136 190.448 101.247 190.448C100.357 190.448 99.5035 190.095 98.8727 189.468C98.242 188.84 97.8854 187.988 97.8808 187.098V181.874Z" fill="#2F2E41"/>
<path d="M85.4795 209.987V214.329C85.4802 214.554 85.5695 214.769 85.7281 214.929C85.8866 215.088 86.1016 215.179 86.3265 215.18H116.356C116.581 215.179 116.797 215.089 116.956 214.929C117.114 214.77 117.203 214.554 117.203 214.329V209.987H85.4795Z" fill="#3F3D56"/>
<path d="M35.9736 98.5701V180.776C35.9745 181.824 36.3909 182.828 37.1314 183.569C37.8719 184.31 38.876 184.726 39.9232 184.727H161.702C162.749 184.726 163.753 184.31 164.494 183.569C165.234 182.828 165.651 181.824 165.651 180.776V98.5701C165.649 97.5234 165.232 96.5203 164.492 95.7806C163.751 95.0409 162.748 94.6248 161.702 94.6235H39.9232C38.8769 94.6248 37.8737 95.0409 37.1335 95.7806C36.3932 96.5203 35.9761 97.5234 35.9736 98.5701Z" fill="#3F3D56"/>
<path d="M38.8306 99.5929V179.762C38.8315 180.322 39.0542 180.858 39.4499 181.254C39.8455 181.65 40.3819 181.873 40.9414 181.874H160.688C161.248 181.873 161.784 181.65 162.18 181.254C162.575 180.858 162.798 180.322 162.799 179.762V99.5929C162.799 99.0325 162.577 98.495 162.181 98.0983C161.785 97.7016 161.248 97.4782 160.688 97.477H40.9414C40.3812 97.4782 39.8443 97.7016 39.4486 98.0983C39.0529 98.495 38.8306 99.0325 38.8306 99.5929Z" fill="#6C63FF"/>
<path d="M63.2474 216.203C63.3693 216.356 63.5242 216.479 63.7005 216.564C63.8769 216.648 64.07 216.692 64.2655 216.691H135.507C135.702 216.69 135.894 216.647 136.07 216.563C136.246 216.479 136.401 216.357 136.524 216.205C136.646 216.054 136.734 215.877 136.78 215.688C136.825 215.498 136.828 215.301 136.789 215.11L135.683 209.855C135.637 209.641 135.538 209.442 135.396 209.275C135.253 209.109 135.071 208.981 134.866 208.903C134.718 208.845 134.56 208.815 134.401 208.815H65.367C65.2078 208.815 65.05 208.845 64.9018 208.903C64.6971 208.981 64.5152 209.109 64.3727 209.275C64.2301 209.442 64.1314 209.641 64.0856 209.855L62.9797 215.11C62.9403 215.301 62.9439 215.498 62.9903 215.687C63.0366 215.876 63.1244 216.052 63.2474 216.203Z" fill="#2F2E41"/>
<path d="M65.3668 209.913C65.3452 209.912 65.3237 209.916 65.3034 209.924C65.2685 209.936 65.2371 209.956 65.2121 209.983C65.187 210.01 65.169 210.043 65.1596 210.079L64.0531 215.336C64.0472 215.367 64.0482 215.398 64.0559 215.428C64.0636 215.458 64.0779 215.486 64.0977 215.51L64.1026 215.516C64.1217 215.541 64.1464 215.561 64.1747 215.574C64.203 215.588 64.2341 215.594 64.2655 215.593H135.507C135.538 215.593 135.569 215.587 135.597 215.573C135.625 215.56 135.65 215.541 135.669 215.516C135.69 215.493 135.705 215.465 135.713 215.434C135.721 215.404 135.722 215.372 135.716 215.342L134.609 210.081C134.601 210.047 134.584 210.015 134.561 209.988C134.538 209.961 134.509 209.941 134.476 209.928C134.452 209.918 134.427 209.913 134.401 209.913H65.3668Z" fill="white"/>
<path d="M44.7913 108.521H156.838C156.954 108.518 157.065 108.47 157.147 108.387C157.228 108.303 157.274 108.191 157.274 108.075C157.274 107.958 157.228 107.846 157.147 107.763C157.065 107.68 156.954 107.632 156.838 107.629H44.7913C44.6748 107.632 44.564 107.68 44.4825 107.763C44.4011 107.846 44.3555 107.958 44.3555 108.075C44.3555 108.191 44.4011 108.303 44.4825 108.387C44.564 108.47 44.6748 108.518 44.7913 108.521Z" fill="#3F3D56"/>
<path d="M149.211 105.353C150.653 105.353 151.822 104.158 151.822 102.683C151.822 101.208 150.653 100.013 149.211 100.013C147.769 100.013 146.6 101.208 146.6 102.683C146.6 104.158 147.769 105.353 149.211 105.353Z" fill="#3F3D56"/>
<path d="M140.19 105.353C141.632 105.353 142.801 104.158 142.801 102.683C142.801 101.208 141.632 100.013 140.19 100.013C138.748 100.013 137.579 101.208 137.579 102.683C137.579 104.158 138.748 105.353 140.19 105.353Z" fill="#3F3D56"/>
<path d="M131.169 105.353C132.611 105.353 133.78 104.158 133.78 102.683C133.78 101.208 132.611 100.013 131.169 100.013C129.727 100.013 128.558 101.208 128.558 102.683C128.558 104.158 129.727 105.353 131.169 105.353Z" fill="#3F3D56"/>
<path d="M49.7451 101.16C49.7448 101.223 49.757 101.286 49.7808 101.344C49.8047 101.403 49.8399 101.456 49.8843 101.501C49.9287 101.546 49.9815 101.581 50.0397 101.606C50.0979 101.63 50.1604 101.643 50.2235 101.643H56.6306C56.7572 101.64 56.8777 101.588 56.9662 101.497C57.0547 101.406 57.1043 101.285 57.1043 101.158C57.1043 101.031 57.0547 100.91 56.9662 100.819C56.8777 100.728 56.7572 100.676 56.6306 100.673H50.2235C50.0956 100.674 49.9735 100.727 49.8838 100.818C49.7942 100.909 49.7444 101.032 49.7451 101.16Z" fill="#3F3D56"/>
<path d="M49.7451 102.982C49.7448 103.045 49.757 103.108 49.7808 103.166C49.8047 103.225 49.8399 103.278 49.8843 103.323C49.9287 103.367 49.9815 103.403 50.0397 103.427C50.0979 103.452 50.1604 103.465 50.2235 103.465H56.6306C56.7573 103.462 56.8779 103.41 56.9666 103.319C57.0552 103.228 57.1049 103.107 57.1049 102.98C57.1049 102.853 57.0552 102.731 56.9666 102.641C56.8779 102.55 56.7573 102.497 56.6306 102.495H50.2235C50.0956 102.496 49.9735 102.548 49.8838 102.64C49.7942 102.731 49.7444 102.854 49.7451 102.982Z" fill="#3F3D56"/>
<path d="M49.7451 104.799C49.7444 104.927 49.7942 105.05 49.8838 105.142C49.9735 105.233 50.0956 105.285 50.2235 105.287H56.6306C56.7572 105.284 56.8777 105.231 56.9662 105.141C57.0547 105.05 57.1043 104.928 57.1043 104.802C57.1043 104.675 57.0547 104.553 56.9662 104.463C56.8777 104.372 56.7572 104.319 56.6306 104.317H50.2235C50.1604 104.317 50.0979 104.33 50.0397 104.354C49.9815 104.378 49.9287 104.414 49.8843 104.459C49.8399 104.504 49.8047 104.557 49.7808 104.615C49.757 104.674 49.7448 104.736 49.7451 104.799Z" fill="#3F3D56"/>
<path d="M140.143 122.127H61.4859C60.4526 122.128 59.4619 122.539 58.7313 123.27C58.0006 124.001 57.5896 124.992 57.5884 126.026V164.322C57.5895 165.356 58.0005 166.347 58.7312 167.078C59.4619 167.809 60.4525 168.22 61.4859 168.221H140.143C141.176 168.22 142.167 167.809 142.897 167.078C143.628 166.347 144.039 165.356 144.04 164.322V126.026C144.039 124.992 143.628 124.001 142.897 123.27C142.167 122.539 141.176 122.128 140.143 122.127ZM143.163 126.026V137.199H115.516V123.005H140.143C140.943 123.006 141.711 123.324 142.277 123.891C142.843 124.457 143.162 125.225 143.163 126.026ZM86.9908 152.271V138.077H114.638V152.271H86.9908ZM114.638 153.149V167.343H86.9908V153.149H114.638ZM86.1131 152.271H58.4661V138.077H86.1131V152.271ZM86.9908 137.199V123.005H114.638V137.199H86.9908ZM115.516 138.077H143.163V152.271H115.516V138.077ZM61.4859 123.005H86.1131V137.199H58.4661V126.026C58.467 125.225 58.7854 124.457 59.3516 123.891C59.9177 123.324 60.6853 123.006 61.4859 123.005ZM58.4661 164.322V153.149H86.1131V167.343H61.4859C60.6852 167.342 59.9176 167.024 59.3515 166.457C58.7854 165.891 58.4669 165.123 58.4661 164.322ZM140.143 167.343H115.516V153.149H143.163V164.322C143.162 165.123 142.843 165.891 142.277 166.458C141.711 167.024 140.943 167.342 140.143 167.343Z" fill="#3F3D56"/>
<path d="M96.8166 131.85C96.1186 130.695 95.2915 129.462 93.9961 129.085C92.496 128.648 90.9551 129.516 89.648 130.372C85.739 132.932 81.9747 135.706 78.3721 138.683L78.376 138.727L86.7903 138.147C88.8167 138.007 90.9128 137.848 92.7036 136.889C93.3832 136.525 94.0456 136.039 94.8156 136.005C95.7723 135.963 96.6065 136.632 97.2621 137.33C101.14 141.461 102.262 147.778 106.613 151.407C103.869 144.639 100.594 138.1 96.8166 131.85Z" fill="white"/>
<path d="M120.653 166.887C120.224 166.345 120.049 166.218 119.626 165.671C116.182 161.215 112.945 156.609 109.914 151.851C107.856 148.621 105.9 145.328 104.046 141.973C103.163 140.378 102.304 138.77 101.47 137.15C100.822 135.894 100.189 134.63 99.571 133.359C99.3941 132.996 99.2222 132.631 99.0512 132.266C98.6482 131.406 98.2527 130.542 97.828 129.694C97.3891 128.676 96.7172 127.776 95.8664 127.065C95.462 126.757 94.9785 126.571 94.4722 126.528C93.7592 126.533 93.061 126.733 92.4539 127.107C87.8588 129.523 83.5697 132.482 79.6784 135.92C75.7813 139.344 72.2978 143.212 69.2992 147.445C69.2074 147.576 68.9905 147.451 69.0831 147.319C69.4477 146.804 69.8195 146.293 70.1986 145.789C74.9121 139.518 80.6915 134.125 87.2727 129.857C88.3799 129.139 89.5079 128.455 90.6568 127.805C91.2358 127.477 91.8174 127.153 92.4089 126.849C92.9757 126.517 93.6116 126.319 94.267 126.273C96.5214 126.238 97.6887 128.792 98.4905 130.511C98.7425 131.051 98.9975 131.591 99.2556 132.128C100.231 134.169 101.244 136.191 102.294 138.194C102.943 139.431 103.605 140.661 104.282 141.883C106.388 145.69 108.626 149.42 110.997 153.072C114.137 157.911 117.252 162.185 120.83 166.71C120.929 166.835 120.753 167.013 120.653 166.887Z" fill="white"/>
<path d="M79.4559 134.659C79.3249 134.513 79.1947 134.367 79.0629 134.22C78.0233 133.07 76.9078 131.934 75.4802 131.274C74.7996 130.95 74.0565 130.778 73.3026 130.769C72.5247 130.791 71.7577 130.958 71.0415 131.263C70.7011 131.399 70.3682 131.553 70.0403 131.717C69.6657 131.906 69.2977 132.107 68.9315 132.31C68.2439 132.691 67.5654 133.088 66.8957 133.502C65.5632 134.326 64.2725 135.212 63.0235 136.162C62.376 136.654 61.7419 137.163 61.1211 137.688C60.5438 138.175 59.9781 138.676 59.4241 139.189C59.3056 139.298 59.1287 139.122 59.2472 139.012C59.3932 138.876 59.5409 138.741 59.6886 138.607C60.1057 138.23 60.5296 137.86 60.9601 137.497C61.7452 136.835 62.5506 136.197 63.3764 135.586C64.6605 134.634 65.9887 133.748 67.3612 132.925C68.0471 132.515 68.7424 132.121 69.4471 131.745C69.6599 131.631 69.8751 131.52 70.0929 131.415C70.587 131.166 71.1004 130.957 71.6281 130.79C72.3756 130.548 73.1665 130.471 73.9467 130.562C74.7001 130.672 75.426 130.923 76.086 131.303C77.4877 132.086 78.5748 133.298 79.6328 134.481C79.7396 134.601 79.5635 134.779 79.4559 134.659Z" fill="white"/>
<path d="M108.176 146.577L111.535 145.348L113.203 144.738C113.741 144.521 114.291 144.332 114.849 144.171C115.337 144.031 115.855 144.038 116.339 144.19C116.771 144.35 117.166 144.595 117.502 144.911C117.844 145.226 118.163 145.566 118.455 145.929C118.818 146.365 119.176 146.807 119.535 147.246C121.018 149.06 122.491 150.883 123.955 152.713C125.418 154.543 126.872 156.38 128.316 158.226C129.764 160.076 131.201 161.934 132.629 163.799C132.804 164.028 132.979 164.257 133.153 164.485C133.25 164.612 133.467 164.487 133.369 164.359C131.931 162.475 130.483 160.598 129.025 158.729C127.563 156.856 126.091 154.99 124.609 153.133C123.127 151.276 121.635 149.426 120.133 147.585C119.759 147.126 119.384 146.668 119.009 146.21C118.692 145.824 118.379 145.434 118.032 145.075C117.736 144.718 117.373 144.423 116.963 144.208C116.553 143.992 116.105 143.859 115.644 143.816C115.085 143.836 114.535 143.957 114.02 144.173C113.458 144.377 112.898 144.584 112.337 144.789L108.955 146.026L108.11 146.336C107.959 146.391 108.024 146.633 108.176 146.577Z" fill="white"/>
<path d="M75.0379 132.721C74.1748 132.296 73.2141 132.108 72.2544 132.177C71.2946 132.245 70.3705 132.568 69.5767 133.112C72.5684 133.629 75.5275 134.319 78.4387 135.181C77.2298 134.473 76.2841 133.362 75.0379 132.721Z" fill="white"/>
<path d="M69.56 133.109L69.2314 133.376C69.3426 133.283 69.4582 133.195 69.5768 133.112L69.56 133.109Z" fill="white"/>
<path d="M117.375 146.589C117.081 146.156 116.671 145.814 116.192 145.602L115.73 145.62C119.245 151.833 123.992 157.261 129.68 161.573L117.375 146.589Z" fill="white"/>
<path d="M115.215 139.787C116.684 139.787 117.874 138.596 117.874 137.127C117.874 135.658 116.684 134.467 115.215 134.467C113.747 134.467 112.556 135.658 112.556 137.127C112.556 138.596 113.747 139.787 115.215 139.787Z" fill="white"/>
<path d="M153.8 166.685C154.323 166.684 154.825 166.476 155.196 166.105C155.566 165.735 155.774 165.233 155.775 164.709V123.883C155.775 123.359 155.567 122.856 155.196 122.486C154.826 122.116 154.324 121.907 153.8 121.907C153.276 121.907 152.774 122.116 152.404 122.486C152.033 122.856 151.825 123.359 151.825 123.883V164.709C151.826 165.233 152.034 165.735 152.404 166.105C152.775 166.476 153.276 166.684 153.8 166.685Z" fill="#3F3D56"/>
<path d="M153.8 166.685C154.323 166.684 154.825 166.476 155.196 166.105C155.566 165.735 155.774 165.233 155.775 164.709V156.052C155.547 155.742 155.25 155.49 154.907 155.316C154.564 155.142 154.185 155.052 153.8 155.052C153.415 155.052 153.036 155.142 152.693 155.316C152.35 155.49 152.053 155.742 151.825 156.052V164.709C151.826 165.233 152.034 165.735 152.404 166.105C152.775 166.476 153.276 166.684 153.8 166.685Z" fill="#2F2E41"/>
<path d="M153.8 158.344C154.363 158.343 154.903 158.119 155.301 157.721C155.699 157.323 155.923 156.783 155.924 156.219V146.909C155.679 146.575 155.36 146.304 154.991 146.117C154.622 145.93 154.214 145.833 153.8 145.833C153.386 145.833 152.979 145.93 152.61 146.117C152.241 146.304 151.921 146.575 151.676 146.909V156.219C151.677 156.783 151.901 157.323 152.299 157.721C152.697 158.119 153.237 158.343 153.8 158.344Z" fill="#6C63FF"/>
<path d="M153.8 156.651C154.211 156.65 154.604 156.487 154.895 156.197C155.185 155.906 155.349 155.512 155.349 155.101V148.311C155.171 148.067 154.937 147.869 154.668 147.733C154.399 147.597 154.102 147.526 153.8 147.526C153.498 147.526 153.201 147.597 152.932 147.733C152.663 147.869 152.429 148.067 152.251 148.311V155.101C152.252 155.512 152.415 155.906 152.705 156.197C152.996 156.487 153.389 156.65 153.8 156.651Z" fill="#3F3D56"/>
<path d="M92.8783 212.55C92.5316 212.24 92.3223 211.804 92.2962 211.339C92.2701 210.875 92.4294 210.418 92.7392 210.071L109.993 190.759C110.146 190.587 110.332 190.447 110.54 190.347C110.748 190.247 110.973 190.189 111.203 190.176C111.433 190.163 111.664 190.195 111.881 190.272C112.099 190.348 112.299 190.466 112.471 190.62C112.643 190.773 112.783 190.959 112.883 191.167C112.983 191.375 113.041 191.6 113.054 191.831C113.067 192.061 113.034 192.291 112.958 192.509C112.882 192.727 112.764 192.927 112.61 193.099L95.3569 212.411C95.0464 212.758 94.6111 212.967 94.1464 212.994C93.6817 213.02 93.2257 212.86 92.8783 212.55Z" fill="#6C63FF"/>
<path d="M236.007 244.347C236.007 247.547 235.252 249.997 235.345 251.955C230.169 254.215 224.847 256.124 219.415 257.671C218.8 257.846 218.186 258.013 217.567 258.18C214.219 247.925 210.866 238.535 209.545 237.538C206.521 235.269 205.007 244.659 205.007 242.389C205.007 240.12 206.521 240.12 202.743 237.095C198.96 234.07 201.229 220.457 201.229 220.457L195.937 206.844L201.856 185.131L209.545 156.926H217.106C217.106 156.926 217.33 157.088 217.703 157.391C219.594 158.936 225.299 164.099 224.667 169.784C224.479 171.478 224.9 176.404 225.633 182.962C227.862 202.765 232.984 224.294 232.984 229.974C232.984 237.538 236.007 239.808 236.007 244.347Z" fill="#E6E6E6"/>
<path d="M229.667 182.888C229.658 182.866 229.654 182.849 229.645 182.831C229.475 182.374 229.278 181.929 229.052 181.497C227.775 179.095 229.127 175.408 227.688 171.334C225.362 164.731 222.527 160.837 218.371 157.347C218.248 157.242 218.125 157.141 217.998 157.036L217.994 157.031C215.22 154.753 211.876 152.624 207.725 149.972C206.86 149.419 205.956 148.844 205.017 148.238C203.806 147.461 203.872 144.871 203.942 142.132C204.021 139.09 204.104 135.938 202.612 133.971L202.516 133.844L202.362 133.804C197.246 132.792 192.029 132.39 186.818 132.606H186.814C184.602 132.688 182.405 133.01 180.262 133.567C180.104 133.611 179.946 133.655 179.792 133.708C179.674 133.738 179.555 133.778 179.437 133.817L179.34 133.852L179.266 133.923C177.822 135.367 177.489 137.957 177.331 140.657V140.661C177.3 141.153 177.274 141.645 177.252 142.136C177.129 144.761 177.015 147.242 176.049 148.317C173.896 150.758 171.293 152.761 168.383 154.217C163.849 156.456 160.264 156.386 160.211 156.386L159.794 156.373L159.755 156.786C156.744 162.523 156.859 177.326 156.766 193.178C156.762 194.061 156.756 194.947 156.749 195.839C156.696 203.222 156.556 210.734 156.003 217.578C155.761 220.519 155.45 223.333 155.033 225.962C153.005 238.768 143.821 228.135 139.428 236.656C139.572 237.494 139.815 238.312 140.152 239.093C140.657 239.391 141.174 239.681 141.688 239.971C143.965 241.239 146.285 242.423 148.648 243.522C148.779 243.584 148.911 243.645 149.043 243.702C153.376 245.708 157.842 247.412 162.41 248.803C163.301 249.075 164.192 249.335 165.091 249.58C173.049 251.778 181.243 253.006 189.495 253.237C189.529 253.233 189.562 253.232 189.596 253.233C199.356 252.963 209.051 251.565 218.489 249.067C218.621 249.032 218.753 248.996 218.885 248.961C219.503 248.795 220.118 248.628 220.732 248.452C226.164 246.906 231.486 244.996 236.662 242.736C236.667 242.929 236.686 243.121 236.719 243.311C236.723 243.373 236.732 243.435 236.745 243.496C236.754 243.426 236.763 243.355 236.767 243.285C236.794 243.079 236.816 242.868 236.838 242.657C239.523 216.458 233.946 194.214 229.667 182.888Z" fill="#3F3D56"/>
<path d="M169.355 118.678C172.034 123.577 176.3 127.418 181.452 129.568C186.604 131.717 192.335 132.048 197.7 130.505C203.065 128.961 207.744 125.636 210.968 121.077C214.191 116.518 215.767 110.997 215.434 105.422C215.102 99.848 212.882 94.5531 209.139 90.4096C205.397 86.2661 200.355 83.5211 194.845 82.6267C189.335 81.7323 183.684 82.7418 178.824 85.489C173.964 88.2361 170.184 92.5571 168.107 97.7404C167.994 98.0217 167.893 98.3029 167.792 98.5954C166.618 101.863 166.15 105.343 166.419 108.804C166.689 112.266 167.689 115.631 169.355 118.678Z" fill="#FFB6B6"/>
<path d="M165.824 98.5955C166.881 95.6366 166.42 97.1779 167.488 94.2303C166.791 96.8404 167.893 98.3029 167.792 98.5955H197.044V81.5847C188.474 78.1871 180.096 75.2957 175.035 81.5847C170.525 81.5849 166.2 83.3772 163.011 86.5673C159.822 89.7574 158.03 94.084 158.03 98.5955H165.824Z" fill="#2F2E41"/>
<path d="M176.193 145.881C176.216 145.566 176.249 145.24 176.294 144.925C176.609 142.607 177.397 140.38 178.195 138.175C179.039 135.801 179.893 133.416 180.748 131.042C179.647 135.351 179.983 139.902 181.704 144.002C186.641 140.155 183.526 131.357 189.981 131.357C205.502 131.357 221.472 118.768 221.472 103.231C221.472 87.7049 214.814 76.0945 199.294 76.0945C183.762 76.0945 171.166 83.2047 170.862 98.7305C189.981 103.231 172.583 144.306 176.193 145.881Z" fill="#2F2E41"/>
<path d="M219.532 100.851C229.47 100.851 237.527 92.7918 237.527 82.8502C237.527 72.9087 229.47 64.8495 219.532 64.8495C209.594 64.8495 201.538 72.9087 201.538 82.8502C201.538 92.7918 209.594 100.851 219.532 100.851Z" fill="#2F2E41"/>
<path d="M247.585 186.084C247.524 187.01 247.469 187.997 247.423 189.043C246.492 208.749 247.295 235.278 241.024 249.673C239.62 250.441 238.201 251.175 236.768 251.876C236.71 251.903 236.658 251.929 236.609 251.955C236.223 252.144 235.837 252.328 235.451 252.504C235.437 252.516 235.42 252.525 235.403 252.53C231.162 254.535 226.792 256.252 222.321 257.671C221.772 257.847 221.219 258.013 220.666 258.18C220.548 258.215 220.429 258.251 220.311 258.286C211.888 260.777 203.181 262.177 194.402 262.452C193.945 262.465 193.498 262.474 193.063 262.482C192.91 262.487 192.76 262.491 192.611 262.491C192.12 262.496 191.633 262.5 191.141 262.5C190.149 262.5 189.162 262.485 188.179 262.456C179.927 262.225 171.733 260.997 163.775 258.799C162.875 258.553 161.984 258.294 161.094 258.022C156.526 256.631 152.06 254.927 147.726 252.921C147.595 252.864 147.463 252.803 147.332 252.741C144.971 251.644 142.651 250.46 140.371 249.19C139.858 248.9 139.34 248.61 138.836 248.312C138.499 247.531 138.256 246.713 138.111 245.875C137.115 241.086 136.317 244.317 135.746 234.352C135.224 225.216 134.89 216.054 134.768 210.817C134.728 209.421 134.715 208.302 134.71 207.538C135.176 204.21 142.653 200.435 153.559 196.848C154.59 196.51 155.656 196.172 156.749 195.839C159.698 194.93 162.849 194.039 166.14 193.178C174.522 190.983 183.83 188.968 193.068 187.304C197.627 186.488 202.169 185.755 206.58 185.131C214.316 184.034 221.636 183.275 227.899 182.963C228.5 182.932 229.088 182.906 229.667 182.888C230.29 182.862 230.9 182.844 231.497 182.831C240.52 182.634 246.681 183.573 247.585 186.084Z" fill="#2F2E41"/>
<path opacity="0.2" d="M247.585 186.084C247.524 187.01 247.469 187.997 247.423 189.043C240.585 181.677 166.93 214.584 135.746 234.352C135.224 225.216 134.89 216.054 134.768 210.817C134.728 209.421 134.715 208.302 134.71 207.538C135.176 204.21 142.653 200.435 153.559 196.848C154.59 196.51 155.656 196.172 156.749 195.839C159.698 194.93 162.849 194.039 166.14 193.178C174.522 190.983 183.83 188.968 193.068 187.304C197.627 186.488 202.169 185.755 206.58 185.131C214.316 184.034 221.636 183.275 227.899 182.963C228.5 182.932 229.088 182.906 229.667 182.888C230.29 182.862 230.9 182.844 231.497 182.831C240.52 182.634 246.681 183.573 247.585 186.084Z" fill="black"/>
<path d="M97.7944 208.917C98.4851 209.789 99.3583 210.498 100.353 210.995C101.347 211.492 102.438 211.764 103.549 211.794C104.66 211.823 105.764 211.609 106.783 211.165C107.802 210.722 108.712 210.06 109.448 209.227L134.439 219.495L131.742 205.712L108.424 198.075C106.943 196.931 105.093 196.37 103.227 196.499C101.36 196.627 99.6049 197.437 98.2947 198.773C96.9845 200.11 96.2099 201.881 96.1177 203.75C96.0255 205.62 96.6221 207.458 97.7944 208.917Z" fill="#FFB6B6"/>
<path d="M180.926 151.523L180.789 151.509L166.216 152.567C164.365 152.701 162.565 153.228 160.934 154.111C159.302 154.995 157.878 156.216 156.754 157.692C156.232 158.376 155.78 159.111 155.404 159.886L155.401 159.888C154.144 162.46 153.766 165.373 154.323 168.18L161.184 202.73L144.675 201.23L138.649 202.26L131.538 199.39L116.946 199.638L116.608 200.757L113.546 210.908L113.306 211.706L135.589 225.752L142.049 223.786L145.092 226.125L145.238 226.129L151.273 226.248L177.01 226.753L184.045 214.285L185.145 212.33C193.315 194.02 195.331 181.238 194.692 172.432C194.356 167.779 193.281 164.242 191.979 161.577C187.954 153.34 181.21 151.593 180.926 151.523Z" fill="#3F3D56"/>
<path d="M221.808 98.8317C218.395 98.0643 215.232 96.4475 212.61 94.1313C209.989 91.8151 207.994 88.8743 206.811 85.5815C205.755 82.5183 205.357 79.1546 203.585 76.4284C206.285 72.7197 208.449 68.6497 210.016 64.3379C210.622 62.6687 212.042 59.6384 209.635 58.7202C207.717 57.9886 205.538 59.7543 204.401 61.1476C203.538 62.2033 202.918 63.4373 202.588 64.7608C202.196 63.0289 201.803 61.2971 201.411 59.5652C201.362 59.399 201.25 59.2585 201.099 59.1728C200.948 59.0871 200.77 59.063 200.602 59.1053C197.389 59.6532 195.058 62.6294 194.654 65.7642C194.433 67.3781 194.8 69.0176 195.687 70.3832C196.72 71.954 198.231 73.0802 199.669 74.2507C201.199 75.4956 202.496 76.8215 203.318 78.6419C204.173 80.534 204.558 82.6046 205.125 84.5913C206.201 88.4072 208.286 91.862 211.161 94.5917C214.035 97.3214 217.593 99.2249 221.458 100.102C222.284 100.282 222.637 99.0128 221.808 98.8317ZM203.663 67.3489C203.56 65.6945 203.997 64.0514 204.908 62.6672C205.365 61.9653 205.936 61.3458 206.599 60.8349C207.228 60.3545 208.155 59.7183 208.987 59.8947C210.065 60.1236 209.631 61.328 209.402 62.0543C209.1 63.0125 208.768 63.9605 208.405 64.8983C207.7 66.7196 206.88 68.4947 205.952 70.2134C205.47 71.108 204.956 71.9837 204.418 72.845C204.047 71.2078 203.677 69.5706 203.306 67.9335C203.423 67.8907 203.522 67.8096 203.586 67.7035C203.651 67.5973 203.678 67.4724 203.663 67.3489ZM195.975 67.611C195.76 66.115 196.072 64.5907 196.858 63.3C197.644 62.0093 198.855 61.0329 200.283 60.5385C201.328 65.1539 202.373 69.7693 203.418 74.3847C203.202 74.7029 202.98 75.0163 202.757 75.3294C202.698 75.2622 202.645 75.1927 202.584 75.1266C200.392 72.7405 196.57 71.1139 195.975 67.611Z" fill="#6C63FF"/>
</g>
<defs>
<clipPath id="clip0_29_384">
<rect width="247.17" height="262" fill="white" transform="translate(0.415039 0.5)"/>
</clipPath>
</defs>
</svg>
