<svg width="22" height="21" viewBox="0 0 22 21" fill="none" xmlns="http://www.w3.org/2000/svg">
<path d="M19.3499 7.42293L18.9837 7.2192C18.9269 7.18756 18.8989 7.17169 18.8714 7.15524C18.5983 6.99165 18.3682 6.76564 18.2002 6.49523C18.1833 6.46802 18.1674 6.43949 18.1348 6.3831C18.1023 6.32677 18.0858 6.29823 18.0706 6.26998C17.92 5.98866 17.8385 5.67515 17.8336 5.35606C17.8331 5.32398 17.8332 5.29121 17.8343 5.22604L17.8415 4.80078C17.8529 4.12025 17.8587 3.77894 17.763 3.47262C17.6781 3.20053 17.536 2.94993 17.3462 2.73725C17.1317 2.49685 16.8347 2.32534 16.2402 1.98276L15.7464 1.6982C15.1536 1.35658 14.8571 1.18571 14.5423 1.12057C14.2639 1.06294 13.9765 1.06561 13.6991 1.12789C13.3859 1.19819 13.0931 1.37351 12.5079 1.72396L12.5045 1.72555L12.1507 1.93741C12.0948 1.97091 12.0665 1.98779 12.0384 2.00338C11.7601 2.1581 11.4495 2.24365 11.1312 2.25387C11.0992 2.2549 11.0665 2.2549 11.0013 2.2549C10.9365 2.2549 10.9024 2.2549 10.8704 2.25387C10.5515 2.24361 10.2402 2.15759 9.96151 2.00224C9.93342 1.98658 9.90563 1.96956 9.84957 1.9359L9.49349 1.72213C8.90422 1.36836 8.60915 1.19121 8.29427 1.12057C8.0157 1.05807 7.72737 1.05634 7.44791 1.11471C7.13236 1.18062 6.83577 1.35276 6.24258 1.69703L6.23994 1.6982L5.75228 1.98124L5.74688 1.98454C5.15904 2.32572 4.86441 2.49672 4.6517 2.73614C4.46294 2.9486 4.32185 3.19881 4.2374 3.47018C4.14194 3.77691 4.14703 4.11896 4.15853 4.8027L4.16568 5.22736C4.16676 5.29166 4.16864 5.32362 4.16817 5.35525C4.16343 5.67499 4.08086 5.98914 3.92974 6.27096C3.9148 6.29883 3.8987 6.3267 3.86654 6.38237C3.83436 6.43809 3.81877 6.46579 3.80209 6.49268C3.63336 6.76452 3.40214 6.99186 3.12733 7.15572C3.10015 7.17193 3.0715 7.18752 3.01521 7.21871L2.65365 7.41908C2.05208 7.75245 1.75137 7.91928 1.53256 8.15669C1.33898 8.36672 1.19275 8.61585 1.10349 8.88717C1.00259 9.19387 1.00267 9.53778 1.00424 10.2255L1.00551 10.7877C1.00706 11.4708 1.00919 11.8122 1.11032 12.1168C1.19979 12.3863 1.34495 12.634 1.53744 12.8427C1.75502 13.0787 2.05274 13.2445 2.64974 13.5766L3.00808 13.776C3.06907 13.8099 3.09976 13.8266 3.12917 13.8444C3.40148 14.0083 3.63089 14.235 3.79818 14.5053C3.81625 14.5345 3.8336 14.5648 3.8683 14.6255C3.90256 14.6853 3.92009 14.7152 3.93594 14.7452C4.08261 15.0229 4.16114 15.3315 4.16649 15.6455C4.16707 15.6794 4.16658 15.7137 4.16541 15.7827L4.15853 16.1902C4.14695 16.8763 4.1419 17.2197 4.23792 17.5273C4.32287 17.7994 4.46484 18.05 4.65463 18.2627C4.86915 18.5031 5.16655 18.6745 5.76107 19.0171L6.25478 19.3015C6.84763 19.6432 7.14395 19.8138 7.45869 19.879C7.73714 19.9366 8.02464 19.9344 8.30209 19.8721C8.61567 19.8017 8.90948 19.6258 9.49642 19.2743L9.85025 19.0625C9.90622 19.0289 9.93457 19.0121 9.96261 18.9965C10.2409 18.8418 10.5512 18.7558 10.8695 18.7456C10.9015 18.7446 10.9342 18.7446 10.9994 18.7446C11.0648 18.7446 11.0974 18.7446 11.1295 18.7456C11.4484 18.7559 11.7607 18.8422 12.0394 18.9975C12.0639 19.0112 12.0885 19.026 12.1316 19.0519L12.5078 19.2777C13.0971 19.6315 13.3916 19.8081 13.7065 19.8788C13.985 19.9413 14.2736 19.9438 14.5531 19.8855C14.8685 19.8196 15.1657 19.6471 15.7586 19.303L16.2536 19.0157C16.8418 18.6743 17.1367 18.5031 17.3495 18.2636C17.5383 18.0512 17.6796 17.8011 17.764 17.5297C17.8588 17.2252 17.8531 16.8858 17.8417 16.2119L17.8343 15.7724C17.8332 15.7081 17.8331 15.6761 17.8336 15.6445C17.8383 15.3247 17.9195 15.0104 18.0706 14.7286C18.0856 14.7007 18.1018 14.6726 18.1338 14.6171C18.166 14.5615 18.1827 14.5337 18.1994 14.5068C18.3681 14.2349 18.5995 14.0074 18.8744 13.8435C18.9012 13.8275 18.9289 13.8122 18.9838 13.7818L18.9857 13.7809L19.3472 13.5805C19.9488 13.2472 20.2501 13.0801 20.4689 12.8427C20.6625 12.6327 20.8085 12.3839 20.8978 12.1126C20.9981 11.8077 20.9973 11.4658 20.9958 10.7861L20.9945 10.2119C20.9929 9.52871 20.9921 9.1874 20.891 8.88277C20.8015 8.61328 20.6555 8.36561 20.463 8.15685C20.2457 7.92111 19.9475 7.75526 19.3517 7.42378L19.3499 7.42293Z" stroke="#828282" stroke-width="2" stroke-linecap="round" stroke-linejoin="round"/>
<path d="M7.00033 10.5C7.00033 12.7091 8.79119 14.5 11.0003 14.5C13.2095 14.5 15.0003 12.7091 15.0003 10.5C15.0003 8.29082 13.2095 6.49996 11.0003 6.49996C8.79119 6.49996 7.00033 8.29082 7.00033 10.5Z" stroke="#828282" stroke-width="2" stroke-linecap="round" stroke-linejoin="round"/>
</svg>
